<svg width="20" height="20" viewBox="0 0 20 20" fill="none" xmlns="http://www.w3.org/2000/svg">
<path fill-rule="evenodd" clip-rule="evenodd" d="M18.9583 10.0003C18.9583 5.05277 14.9476 1.04199 10 1.04199C5.05246 1.04199 1.04168 5.05277 1.04168 10.0003C1.04168 11.4322 1.3781 12.7874 1.97678 13.9894C2.06612 14.1687 2.08508 14.3519 2.04385 14.506L1.54751 16.361C1.20774 17.6308 2.36949 18.7926 3.63935 18.4528L5.49438 17.9565C5.64846 17.9153 5.8316 17.9342 6.01097 18.0236C7.21295 18.6222 8.56809 18.9587 10 18.9587C14.9476 18.9587 18.9583 14.9479 18.9583 10.0003ZM10 2.29199C14.2572 2.29199 17.7083 5.74313 17.7083 10.0003C17.7083 14.2575 14.2572 17.7087 10 17.7087C8.7658 17.7087 7.60102 17.4191 6.56827 16.9047C6.15377 16.6982 5.65812 16.6187 5.17129 16.749L3.31626 17.2453C2.97556 17.3365 2.66387 17.0248 2.75503 16.6841L3.25137 14.829C3.38163 14.3422 3.30213 13.8466 3.09568 13.4321C2.58128 12.3993 2.29168 11.2345 2.29168 10.0003C2.29168 5.74313 5.74282 2.29199 10 2.29199Z" fill="#AAAAAA"/>
</svg>
