<svg width="26" height="26" viewBox="0 0 26 26" fill="none" xmlns="http://www.w3.org/2000/svg">
<g opacity="0.5">
<path d="M13.7962 15.8746C13.5043 15.8504 13.2354 15.6688 13.1137 15.3802C12.9394 14.9668 13.1332 14.4902 13.5467 14.3159C13.7898 14.2134 14.0249 14.0588 14.2459 13.8378C14.5407 13.543 15.0057 13.5221 15.3247 13.7752C15.3918 13.7767 15.4598 13.7867 15.5274 13.8058C15.9593 13.9277 16.2105 14.3767 16.0885 14.8085C15.8601 15.6175 15.4388 16.4094 14.8916 17.1349C14.6214 17.4932 14.112 17.5646 13.7537 17.2944C13.3954 17.0242 13.3241 16.5147 13.5942 16.1565C13.6649 16.0628 13.7322 15.9688 13.7962 15.8746Z" fill="#1341DE"/>
<path d="M11.3604 15.9191C11.7923 16.0411 12.2412 15.7898 12.3632 15.358C12.3824 15.2899 12.3924 15.2214 12.3938 15.1539C12.6457 14.835 12.6245 14.3708 12.3301 14.0764C12.1091 13.8555 11.9545 13.6204 11.852 13.3773C11.6777 12.9638 11.2011 12.7699 10.7877 12.9443C10.4993 13.0659 10.3177 13.3344 10.2934 13.6261C10.1995 13.5623 10.1058 13.4952 10.0125 13.4248C9.65421 13.1546 9.14474 13.226 8.87454 13.5843C8.60435 13.9425 8.67574 14.452 9.03401 14.7222C9.75954 15.2694 10.5515 15.6907 11.3604 15.9191Z" fill="#1341DE"/>
<path d="M7.23229 12.9416C7.50916 13.2947 8.01988 13.3565 8.37301 13.0797C8.72615 12.8028 8.78797 12.2921 8.51111 11.9389C8.07716 11.3854 7.70309 10.7708 7.41753 10.1221C7.23673 9.7114 6.75723 9.52503 6.34653 9.70583C5.93583 9.88663 5.74947 10.3661 5.93026 10.7768C6.27333 11.5561 6.71905 12.2869 7.23229 12.9416Z" fill="#1341DE"/>
<path d="M5.2432 8.31077C5.2963 8.75635 5.70056 9.07451 6.14614 9.02141C6.59172 8.9683 6.90988 8.56404 6.85678 8.11846C6.77611 7.44162 6.80817 6.76249 6.97466 6.10131C7.08424 5.66617 6.82031 5.22458 6.38517 5.115C5.95002 5.00543 5.50843 5.26935 5.39886 5.7045C5.17944 6.57583 5.14131 7.4559 5.2432 8.31077Z" fill="#1341DE"/>
<path d="M6.50857 3.33571C6.24666 3.70007 6.3297 4.20777 6.69407 4.46969C7.05843 4.73161 7.56613 4.64856 7.82804 4.28419C8.01978 4.01746 8.24288 3.75415 8.50063 3.4964C8.81793 3.1791 8.81793 2.66465 8.50063 2.34735C8.18333 2.03005 7.66888 2.03005 7.35158 2.34735C7.03387 2.66506 6.75337 2.99516 6.50857 3.33571Z" fill="#1341DE"/>
<path d="M12.7431 9.84304C12.6724 9.9367 12.6051 10.0307 12.5412 10.125C12.8331 10.1491 13.1019 10.3307 13.2236 10.6193C13.398 11.0328 13.2041 11.5093 12.7906 11.6836C12.5475 11.7861 12.3124 11.9407 12.0915 12.1617C11.7966 12.4565 11.3316 12.4774 11.0126 12.2243C10.9455 12.2228 10.8775 12.2128 10.8099 12.1937C10.378 12.0718 10.1268 11.6229 10.2488 11.191C10.4772 10.382 10.8985 9.59011 11.4457 8.86458C11.7159 8.50631 12.2253 8.43491 12.5836 8.70511C12.9419 8.97531 13.0133 9.48477 12.7431 9.84304Z" fill="#1341DE"/>
<path d="M14.9769 10.0804C14.545 9.95846 14.0961 10.2097 13.9741 10.6415C13.9549 10.7096 13.945 10.7781 13.9435 10.8456C13.6916 11.1645 13.7129 11.6287 14.0073 11.9231C14.2282 12.144 14.3828 12.3791 14.4853 12.6222C14.6597 13.0357 15.1362 13.2296 15.5497 13.0553C15.838 12.9337 16.0196 12.6651 16.0439 12.3735C16.1378 12.4372 16.2315 12.5043 16.3249 12.5747C16.6831 12.8449 17.1926 12.7735 17.4628 12.4152C17.733 12.057 17.6616 11.5475 17.3033 11.2773C16.5778 10.7301 15.7859 10.3089 14.9769 10.0804Z" fill="#1341DE"/>
<path d="M19.105 13.058C18.8282 12.7048 18.3174 12.643 17.9643 12.9199C17.6112 13.1967 17.5494 13.7075 17.8262 14.0606C18.2602 14.6141 18.6342 15.2288 18.9198 15.8774C19.1006 16.2881 19.5801 16.4745 19.9908 16.2937C20.4015 16.1129 20.5879 15.6334 20.4071 15.2227C20.064 14.4434 19.6183 13.7126 19.105 13.058Z" fill="#1341DE"/>
<path d="M21.0941 17.6888C21.041 17.2432 20.6368 16.925 20.1912 16.9781C19.7456 17.0312 19.4274 17.4355 19.4805 17.8811C19.5612 18.5579 19.5292 19.237 19.3627 19.8982C19.2531 20.3334 19.517 20.7749 19.9522 20.8845C20.3873 20.9941 20.8289 20.7302 20.9385 20.295C21.1579 19.4237 21.196 18.5436 21.0941 17.6888Z" fill="#1341DE"/>
<path d="M19.8288 22.6638C20.0907 22.2994 20.0076 21.7917 19.6433 21.5298C19.2789 21.2679 18.7712 21.351 18.5093 21.7153C18.3175 21.9821 18.0944 22.2454 17.8367 22.5031C17.5194 22.8204 17.5194 23.3349 17.8367 23.6522C18.154 23.9695 18.6684 23.9695 18.9857 23.6522C19.3035 23.3345 19.584 23.0044 19.8288 22.6638Z" fill="#1341DE"/>
<path d="M13.0882 8.20358C12.8114 7.85044 12.8732 7.33973 13.2263 7.06286C13.881 6.54961 14.6118 6.1039 15.3911 5.76083C15.8018 5.58003 16.2813 5.7664 16.4621 6.1771C16.6429 6.5878 16.4565 7.0673 16.0458 7.2481C15.3971 7.53366 14.7824 7.90773 14.229 8.34167C13.8758 8.61854 13.3651 8.55672 13.0882 8.20358Z" fill="#1341DE"/>
<path d="M17.1465 5.97671C17.0934 5.53113 17.4115 5.12687 17.8571 5.07376C18.712 4.97188 19.5921 5.01001 20.4634 5.22942C20.8985 5.339 21.1625 5.78059 21.0529 6.21573C20.9433 6.65088 20.5017 6.91481 20.0666 6.80523C19.4054 6.63874 18.7263 6.60668 18.0494 6.68734C17.6039 6.74045 17.1996 6.42228 17.1465 5.97671Z" fill="#1341DE"/>
<path d="M21.6982 6.52463C21.9601 6.16027 22.4678 6.07722 22.8322 6.33914C23.1727 6.58393 23.5028 6.86444 23.8205 7.18215C24.1378 7.49945 24.1378 8.0139 23.8205 8.3312C23.5032 8.6485 22.9888 8.6485 22.6715 8.3312C22.4137 8.07345 22.1504 7.85034 21.8837 7.65861C21.5193 7.3967 21.4363 6.889 21.6982 6.52463Z" fill="#1341DE"/>
<path d="M13.111 18.9367C13.4641 18.6598 13.526 18.1491 13.2491 17.7959C12.9722 17.4428 12.4615 17.381 12.1084 17.6578C11.5549 18.0918 10.9402 18.4659 10.2915 18.7514C9.88083 18.9322 9.69447 19.4117 9.87526 19.8224C10.0561 20.2331 10.5356 20.4195 10.9463 20.2387C11.7256 19.8956 12.4564 19.4499 13.111 18.9367Z" fill="#1341DE"/>
<path d="M8.4802 20.9258C8.92578 20.8727 9.24394 20.4684 9.19084 20.0228C9.13774 19.5772 8.73348 19.2591 8.2879 19.3122C7.61105 19.3928 6.93192 19.3608 6.27075 19.1943C5.8356 19.0847 5.39401 19.3486 5.28444 19.7838C5.17486 20.2189 5.43879 20.6605 5.87393 20.7701C6.74526 20.9895 7.62533 21.0276 8.4802 20.9258Z" fill="#1341DE"/>
<path d="M3.50515 19.6604C3.86951 19.9223 4.37721 19.8392 4.63912 19.4749C4.90104 19.1105 4.81799 18.6028 4.45363 18.3409C4.1869 18.1492 3.92358 17.9261 3.66583 17.6683C3.34853 17.351 2.83408 17.351 2.51678 17.6683C2.19948 17.9856 2.19948 18.5001 2.51678 18.8174C2.83449 19.1351 3.1646 19.4156 3.50515 19.6604Z" fill="#1341DE"/>
</g>
<path d="M9.67167 13.4905C10.1117 14.3957 10.7731 15.1604 11.6494 15.5944C10.7903 15.7923 9.79664 15.833 8.78071 15.6891C5.75708 15.2608 2.97925 13.3077 2.97925 9.74984C2.97925 9.3011 2.61548 8.93734 2.16675 8.93734C1.71802 8.93734 1.35425 9.3011 1.35425 9.74984C1.35425 14.4253 5.07642 16.8056 8.55278 17.2981C10.2995 17.5455 12.095 17.3442 13.4907 16.6657C14.4313 16.2085 15.2202 15.5123 15.644 14.5844C15.7983 15.3877 15.8204 16.2942 15.6894 17.2192C15.261 20.2428 13.3079 23.0207 9.75008 23.0207C9.30135 23.0207 8.93758 23.3844 8.93758 23.8332C8.93758 24.2819 9.30135 24.6457 9.75008 24.6457C14.4256 24.6457 16.8058 20.9235 17.2983 17.4471C17.5458 15.7004 17.3445 13.905 16.666 12.5092C16.291 11.7378 15.7552 11.0684 15.0627 10.6187C15.74 10.5363 16.4737 10.5424 17.2194 10.648C20.2431 11.0764 23.0209 13.0295 23.0209 16.5873C23.0209 17.036 23.3847 17.3998 23.8334 17.3998C24.2821 17.3998 24.6459 17.036 24.6459 16.5873C24.6459 11.9118 20.9237 9.53159 17.4474 9.0391C15.7007 8.79165 13.9052 8.99293 12.5094 9.67143C11.7602 10.0356 11.1072 10.5515 10.6583 11.2154C10.5367 10.463 10.528 9.6295 10.6483 8.78047C11.0766 5.75684 13.0297 2.979 16.5876 2.979C17.0363 2.979 17.4001 2.61523 17.4001 2.1665C17.4001 1.71777 17.0363 1.354 16.5876 1.354C11.9121 1.354 9.53183 5.07617 9.03935 8.55254C8.79189 10.2993 8.99318 12.0947 9.67167 13.4905Z" fill="#311582"/>
</svg>
