<svg width="20" height="20" viewBox="0 0 20 20" fill="none" xmlns="http://www.w3.org/2000/svg">
<path d="M9.99999 1.04199H9.95217C8.02851 1.04198 6.52098 1.04197 5.34474 1.20011C4.1408 1.36198 3.19078 1.69976 2.4451 2.44544C1.69943 3.19111 1.36165 4.14113 1.19978 5.34508C1.04164 6.52132 1.04165 8.02885 1.04166 9.95251V10.0481C1.04165 11.9718 1.04164 13.4793 1.19978 14.6556C1.36165 15.8595 1.69943 16.8095 2.4451 17.5552C3.19078 18.3009 4.1408 18.6387 5.34474 18.8005C6.52098 18.9587 8.02852 18.9587 9.95218 18.9587H10.0478C11.9715 18.9587 13.479 18.9587 14.6552 18.8005C15.8592 18.6387 16.8092 18.3009 17.5549 17.5552C18.3006 16.8095 18.6383 15.8595 18.8002 14.6556C18.9583 13.4793 18.9583 11.9718 18.9583 10.0481V10.0003C18.9583 9.65515 18.6785 9.37533 18.3333 9.37533C17.9881 9.37533 17.7083 9.65515 17.7083 10.0003C17.7083 11.9822 17.707 13.4057 17.5613 14.489C17.4181 15.5543 17.1457 16.1966 16.671 16.6713C16.1963 17.146 15.554 17.4185 14.4887 17.5617C13.4054 17.7073 11.9818 17.7087 9.99999 17.7087C8.01814 17.7087 6.59462 17.7073 5.5113 17.5617C4.44597 17.4185 3.8037 17.146 3.32899 16.6713C2.85427 16.1966 2.58186 15.5543 2.43863 14.489C2.29298 13.4057 2.29166 11.9822 2.29166 10.0003C2.29166 8.01847 2.29298 6.59495 2.43863 5.51164C2.58186 4.4463 2.85427 3.80404 3.32899 3.32932C3.8037 2.85461 4.44597 2.5822 5.5113 2.43897C6.59462 2.29332 8.01814 2.29199 9.99999 2.29199C10.3452 2.29199 10.625 2.01217 10.625 1.66699C10.625 1.32181 10.3452 1.04199 9.99999 1.04199Z" fill="#AAAAAA"/>
<path d="M10.3914 8.72505C10.1473 8.96913 10.1473 9.36486 10.3914 9.60893C10.6355 9.85301 11.0312 9.85301 11.2753 9.60893L17.7083 3.17588V6.12012C17.7083 6.4653 17.9881 6.74512 18.3333 6.74512C18.6785 6.74512 18.9583 6.4653 18.9583 6.12012V1.66699C18.9583 1.32181 18.6785 1.04199 18.3333 1.04199H13.8802C13.535 1.04199 13.2552 1.32181 13.2552 1.66699C13.2552 2.01217 13.535 2.29199 13.8802 2.29199H16.8244L10.3914 8.72505Z" fill="#AAAAAA"/>
</svg>
