<svg width="20" height="20" viewBox="0 0 20 20" fill="none" xmlns="http://www.w3.org/2000/svg">
<path fill-rule="evenodd" clip-rule="evenodd" d="M12.6033 4.07048C12.614 4.08 12.6247 4.08955 12.6355 4.09912L15.9804 7.07232C16.6045 7.62706 17.1219 8.08693 17.4771 8.50439C17.8505 8.94314 18.1163 9.41552 18.1163 10.0001C18.1163 10.5846 17.8505 11.057 17.4771 11.4957C17.1219 11.9132 16.6045 12.373 15.9804 12.9278L12.6355 15.901C12.6247 15.9106 12.614 15.9201 12.6033 15.9296C12.3329 16.17 12.0806 16.3944 11.8626 16.5383C11.6486 16.6796 11.2593 16.8849 10.8233 16.6891C10.3872 16.4933 10.282 16.066 10.2454 15.8121C10.2082 15.5535 10.2083 15.2159 10.2083 14.8541C10.2083 14.8398 10.2083 14.8254 10.2083 14.811V13.5039C8.99873 13.5873 7.773 13.9085 6.70083 14.4309C5.44004 15.0453 4.43314 15.9164 3.88669 16.9572C3.75302 17.2118 3.46289 17.3424 3.1837 17.2735C2.90451 17.2047 2.70831 16.9543 2.70831 16.6667C2.70831 12.7326 3.85946 10.1709 5.5054 8.59608C6.94006 7.22338 8.68861 6.66011 10.2083 6.54223V5.18909C10.2083 5.17469 10.2083 5.16032 10.2083 5.14599C10.2083 4.78422 10.2082 4.44657 10.2454 4.18803C10.282 3.93413 10.3872 3.50681 10.8233 3.31099C11.2593 3.11517 11.6486 3.32047 11.8626 3.4618C12.0806 3.60573 12.3329 3.83009 12.6033 4.07048ZM11.4609 4.73085C11.5551 4.8116 11.6676 4.91119 11.8051 5.03338L15.1153 7.97582C15.7829 8.56922 16.2333 8.97155 16.5251 9.31447C16.8054 9.64381 16.8663 9.83614 16.8663 10.0001C16.8663 10.164 16.8054 10.3563 16.5251 10.6856C16.2333 11.0286 15.7829 11.4309 15.1153 12.0243L11.8051 14.9667C11.6676 15.0889 11.5551 15.1885 11.4609 15.2693C11.4586 15.1452 11.4583 14.9949 11.4583 14.811V12.8572C11.4583 12.512 11.1785 12.2322 10.8333 12.2322C9.2395 12.2322 7.58327 12.6105 6.15329 13.3072C5.38761 13.6803 4.67481 14.1509 4.06992 14.714C4.37722 12.1749 5.28533 10.5367 6.36956 9.49926C7.7196 8.20752 9.42533 7.76791 10.8333 7.76791C11.1785 7.76791 11.4583 7.48809 11.4583 7.14291V5.18909C11.4583 5.00517 11.4586 4.85492 11.4609 4.73085Z" fill="#AAAAAA"/>
</svg>
